<svg width="345.73303264794384" height="261.36000366210936" viewBox="0 0 350 264.5856561090802" class="css-1j8o68f"><defs id="SvgjsDefs1753"></defs><g id="SvgjsG1754" featurekey="Wg4LIr-0" transform="matrix(10.204080724770172,0,0,10.204080724770172,99.89796450329978,-46.95916633858049)" fill="#111111"><path d="M7.36 18.12 c0.46 0 1.32 -0.18 1.3 -0.18 l1.84 1.68 c-0.94 0.48 -2 0.76 -3.14 0.76 c-3.8 0 -6.86 -3.08 -6.86 -6.86 c0 -3.8 3.06 -6.86 6.86 -6.86 s6.86 3.06 6.86 6.86 c0 1.9 -0.78 3.62 -2.04 4.86 l-1.64 -1.52 c0.88 -0.84 1.42 -2.02 1.42 -3.34 c0 -2.54 -2.04 -4.62 -4.6 -4.62 s-4.6 2.08 -4.6 4.62 s2.04 4.6 4.6 4.6 z M10.5 19.62 c0.62 -0.34 1.2 -0.76 1.68 -1.24 l2.04 1.84 l-3.06 0 z"></path></g><g id="SvgjsG1755" featurekey="qafomr-0" transform="matrix(4.662935995320313,0,0,4.662935995320313,-3.2640543073397597,153.6077829779946)" fill="#111111"><path d="M8.5 9.6 l3.16 0 l0 10.4 l0 3.8 l-3.16 0 l0 -4.84 c-0.14 0.36 -1.08 1.24 -2.68 1.24 c-2.38 0 -5.12 -1.7 -5.12 -5.42 c0 -3.58 2.74 -5.36 5.12 -5.36 c1.6 0 2.54 0.92 2.68 1.14 l0 -0.96 z M6.28 17.42 c1.3 0 2.36 -0.9 2.36 -2.64 c0 -1.68 -1.06 -2.58 -2.36 -2.58 c-1.36 0 -2.52 0.92 -2.52 2.58 c0 1.72 1.16 2.64 2.52 2.64 z M17.5 20.16 c-1.94 0 -3.92 -1.3 -3.92 -4.6 l0 -5.96 l3.16 0 l0 5.74 c0 1.58 0.54 2.08 1.54 2.08 c1.42 0 2.24 -1.38 2.44 -1.98 l0 -5.84 l3.16 0 l0 10.4 l-3.16 0 l0 -1.8 c-0.2 0.5 -1.26 1.96 -3.22 1.96 z M29.08 5.859999999999999 l0 2.66 l-3.16 0 l0 -2.66 l3.16 0 z M29.08 9.6 l0 10.4 l-3.16 0 l0 -10.4 l3.16 0 z M36.239999999999995 9.42 c1.9 0 3.5 0.8 4.48 2.48 l-2.4 1.14 c-0.52 -0.44 -0.94 -0.84 -2.04 -0.84 c-1.2 0 -2.42 0.92 -2.42 2.62 c0 1.68 1.22 2.56 2.42 2.56 c1.1 0 1.52 -0.36 2.04 -0.8 l2.44 1.14 c-1.02 1.68 -2.58 2.44 -4.52 2.44 c-2.32 0 -5.44 -1.66 -5.44 -5.34 c0 -3.62 3.12 -5.4 5.44 -5.4 z M49.58 20 l-3.38 -4.04 l-0.66 0.7 l0 3.34 l-3.16 0 l0 -3.78 l0 -10.36 l3.16 0 l0 6.94 l2.94 -3.2 l3.78 0 l-4.12 4.34 l5.04 6.06 l-3.6 0 z M55.4 9.28 c0 -3.22 2.42 -3.62 3.68 -3.62 c1 0 1.98 0.22 2.72 0.7 l-1.06 2.18 c-0.58 -0.22 -0.8 -0.28 -1.28 -0.28 c-0.9 0 -0.88 0.82 -0.88 1.02 l0 0.32 l2.16 0 l0 2.6 l-2.16 0 l0 7.8 l-3.18 0 l0 -7.8 l-1.42 0 l0 -2.6 l1.42 0 l0 -0.32 z M62.199999999999996 9.6 l3.16 0 l0 10.4 l-3.16 0 l0 -10.4 z M70.56 5.859999999999999 l0 14.14 l-3.16 0 l0 -14.14 l3.16 0 z M75.75999999999999 5.859999999999999 l0 14.14 l-3.16 0 l0 -14.14 l3.16 0 z"></path></g></svg>